STARTFONT 2.1
FONT cursor
SIZE 62 78 78
FONTBOUNDINGBOX 62 62 -30 -32
STARTPROPERTIES 3
COPYRIGHT "These ""glyphs"" are unencumbered"
FONT_ASCENT 32
FONT_DESCENT 34
ENDPROPERTIES
CHARS 154
STARTCHAR X_cursor
ENCODING 0
SWIDTH 506 0
DWIDTH 34 0
BBX 28 28 -12 -16
BITMAP
FC0003F0
FC0003F0
FF000FF0
FF000FF0
FFC03FF0
FFC03FF0
3FF0FFC0
3FF0FFC0
0FFFFF00
0FFFFF00
03FFFC00
03FFFC00
00FFF000
00FFF000
00FFF000
00FFF000
03FFFC00
03FFFC00
0FFFFF00
0FFFFF00
3FF0FFC0
3FF0FFC0
FFC03FF0
FFC03FF0
FF000FF0
FF000FF0
FC0003F0
FC0003F0
ENDCHAR
STARTCHAR X_cursor_mask
ENCODING 1
SWIDTH 506 0
DWIDTH 34 0
BBX 32 32 -14 -18
BITMAP
FF0000FF
FF0000FF
FFC003FF
FFC003FF
FFF00FFF
FFF00FFF
FFFC3FFF
FFFC3FFF
3FFFFFFC
3FFFFFFC
0FFFFFF0
0FFFFFF0
03FFFFC0
03FFFFC0
00FFFF00
00FFFF00
00FFFF00
00FFFF00
03FFFFC0
03FFFFC0
0FFFFFF0
0FFFFFF0
3FFFFFFC
3FFFFFFC
FFFC3FFF
FFFC3FFF
FFF00FFF
FFF00FFF
FFC003FF
FFC003FF
FF0000FF
FF0000FF
ENDCHAR
STARTCHAR arrow
ENCODING 2
SWIDTH 506 0
DWIDTH 34 0
BBX 28 28 -26 -28
BITMAP
000000F0
000000F0
00000FF0
00000FF0
0000FFC0
0000FFC0
000FFFC0
000FFFC0
00FFFF00
00FFFF00
0FFFFF00
0FFFFF00
000FFC00
000FFC00
003FFC00
003FFC00
00FCF000
00FCF000
03F0F000
03F0F000
0FC0C000
0FC0C000
3F00C000
3F00C000
FC000000
FC000000
30000000
30000000
ENDCHAR
STARTCHAR arrow_mask
ENCODING 3
SWIDTH 506 0
DWIDTH 34 0
BBX 32 32 -28 -30
BITMAP
0000003F
0000003F
000003FF
000003FF
00003FFF
00003FFF
0003FFFC
0003FFFC
003FFFFC
003FFFFC
03FFFFF0
03FFFFF0
0FFFFFF0
0FFFFFF0
0FFFFFC0
0FFFFFC0
003FFFC0
003FFFC0
00FFFF00
00FFFF00
03FFFF00
03FFFF00
0FFCFC00
0FFCFC00
3FF0FC00
3FF0FC00
FFC03000
FFC03000
3F000000
3F000000
0C000000
0C000000
ENDCHAR
STARTCHAR based_arrow_down
ENCODING 4
SWIDTH 506 0
DWIDTH 34 0
BBX 16 20 -6 -2
BITMAP
FFFF
FFFF
0000
0000
FFFF
FFFF
03C0
03C0
03C0
03C0
03C0
03C0
03C0
03C0
33CC
33CC
0FF0
0FF0
03C0
03C0
ENDCHAR
STARTCHAR based_arrow_down_mask
ENCODING 5
SWIDTH 506 0
DWIDTH 34 0
BBX 20 24 -8 -4
BITMAP
FFFFF0
FFFFF0
FFFFF0
FFFFF0
FFFFF0
FFFFF0
FFFFF0
FFFFF0
FFFFF0
FFFFF0
03FC00
03FC00
03FC00
03FC00
3FFFC0
3FFFC0
3FFFC0
3FFFC0
3FFFC0
3FFFC0
0FFF00
0FFF00
03FC00
03FC00
ENDCHAR
STARTCHAR based_arrow_up
ENCODING 6
SWIDTH 506 0
DWIDTH 34 0
BBX 16 20 -6 -2
BITMAP
03C0
03C0
0FF0
0FF0
33CC
33CC
03C0
03C0
03C0
03C0
03C0
03C0
03C0
03C0
FFFF
FFFF
0000
0000
FFFF
FFFF
ENDCHAR
STARTCHAR based_arrow_up_mask
ENCODING 7
SWIDTH 506 0
DWIDTH 34 0
BBX 20 24 -8 -4
BITMAP
00F000
00F000
03FC00
03FC00
3FFFC0
3FFFC0
3FFFC0
3FFFC0
3FFFC0
3FFFC0
03FC00
03FC00
03FC00
03FC00
FFFFF0
FFFFF0
FFFFF0
FFFFF0
FFFFF0
FFFFF0
FFFFF0
FFFFF0
FFFFF0
FFFFF0
ENDCHAR
STARTCHAR boat
ENCODING 8
SWIDTH 506 0
DWIDTH 34 0
BBX 32 16 -28 -10
BITMAP
00030000
00030000
003FF000
003FF000
C0C03C00
C0C03C00
FFFFFFFF
FFFFFFFF
000003C0
000003C0
00000C00
00000C00
00003000
00003000
FFFFF000
FFFFF000
ENDCHAR
STARTCHAR boat_mask
ENCODING 9
SWIDTH 506 0
DWIDTH 34 0
BBX 32 18 -28 -10
BITMAP
003F0000
003F0000
00FFF000
00FFF000
C3FFFC00
C3FFFC00
FFFFFFFF
FFFFFFFF
FFFFFFFF
FFFFFFFF
FFFFFFFF
FFFFFFFF
FFFFFFC0
FFFFFFC0
FFFFFC00
FFFFFC00
FFFFF000
FFFFF000
ENDCHAR
STARTCHAR bogosity
ENCODING 10
SWIDTH 506 0
DWIDTH 34 0
BBX 26 28 -12 -16
BITMAP
FC0C0FC0
FC0C0FC0
0C0C0C00
0C0C0C00
0C0C0C00
0C0C0C00
0C0C0C00
0C0C0C00
FFFFFFC0
FFFFFFC0
CC0C0CC0
CC0C0CC0
CC0C0CC0
CC0C0CC0
CC0C0CC0
CC0C0CC0
CC0C0CC0
CC0C0CC0
FFFFFFC0
FFFFFFC0
0C0C0C00
0C0C0C00
0C0C0C00
0C0C0C00
0C0C0C00
0C0C0C00
FC0C0FC0
FC0C0FC0
ENDCHAR
STARTCHAR bogosity_mask
ENCODING 11
SWIDTH 506 0
DWIDTH 34 0
BBX 30 32 -14 -18
BITMAP
FFCFCFFC
FFCFCFFC
FFCFCFFC
FFCFCFFC
FFCFCFFC
FFCFCFFC
0FCFCFC0
0FCFCFC0
FFFFFFFC
FFFFFFFC
FFFFFFFC
FFFFFFFC
FFFFFFFC
FFFFFFFC
FFCFCFFC
FFCFCFFC
FFCFCFFC
FFCFCFFC
FFFFFFFC
FFFFFFFC
FFFFFFFC
FFFFFFFC
FFFFFFFC
FFFFFFFC
0FCFCFC0
0FCFCFC0
FFCFCFFC
FFCFCFFC
FFCFCFFC
FFCFCFFC
FFCFCFFC
FFCFCFFC
ENDCHAR
STARTCHAR bottom_left_corner
ENCODING 12
SWIDTH 506 0
DWIDTH 34 0
BBX 28 28 0 -2
BITMAP
F0000000
F0000000
F0000000
F0000000
F0300300
F0300300
F0300C00
F0300C00
F0303000
F0303000
F030C000
F030C000
F0330000
F0330000
F03C0000
F03C0000
F03FFF00
F03FFF00
F0000000
F0000000
F0000000
F0000000
F0000000
F0000000
FFFFFFF0
FFFFFFF0
FFFFFFF0
FFFFFFF0
ENDCHAR
STARTCHAR bottom_left_corner_mask
ENCODING 13
SWIDTH 506 0
DWIDTH 34 0
BBX 32 32 -2 -4
BITMAP
FF000000
FF000000
FF000000
FF000000
FF3F00F0
FF3F00F0
FF3F03F0
FF3F03F0
FF3F0FC0
FF3F0FC0
FF3F3F00
FF3F3F00
FF3FFC00
FF3FFC00
FF3FF000
FF3FF000
FF3FFFF0
FF3FFFF0
FF3FFFF0
FF3FFFF0
FF3FFFF0
FF3FFFF0
FF000000
FF000000
FFFFFFFF
FFFFFFFF
FFFFFFFF
FFFFFFFF
FFFFFFFF
FFFFFFFF
FFFFFFFF
FFFFFFFF
ENDCHAR
STARTCHAR bottom_right_corner
ENCODING 14
SWIDTH 506 0
DWIDTH 34 0
BBX 28 28 -26 -2
BITMAP
000000F0
000000F0
000000F0
000000F0
0C00C0F0
0C00C0F0
0300C0F0
0300C0F0
00C0C0F0
00C0C0F0
0030C0F0
0030C0F0
000CC0F0
000CC0F0
0003C0F0
0003C0F0
0FFFC0F0
0FFFC0F0
000000F0
000000F0
000000F0
000000F0
000000F0
000000F0
FFFFFFF0
FFFFFFF0
FFFFFFF0
FFFFFFF0
ENDCHAR
STARTCHAR bottom_right_corner_mask
ENCODING 15
SWIDTH 506 0
DWIDTH 34 0
BBX 32 32 -28 -4
BITMAP
000000FF
000000FF
000000FF
000000FF
0F00FCFF
0F00FCFF
0FC0FCFF
0FC0FCFF
03F0FCFF
03F0FCFF
00FCFCFF
00FCFCFF
003FFCFF
003FFCFF
000FFCFF
000FFCFF
0FFFFCFF
0FFFFCFF
0FFFFCFF
0FFFFCFF
0FFFFCFF
0FFFFCFF
000000FF
000000FF
FFFFFFFF
FFFFFFFF
FFFFFFFF
FFFFFFFF
FFFFFFFF
FFFFFFFF
FFFFFFFF
FFFFFFFF
ENDCHAR
STARTCHAR bottom_side
ENCODING 16
SWIDTH 506 0
DWIDTH 34 0
BBX 26 28 -12 -2
BITMAP
000C0000
000C0000
000C0000
000C0000
000C0000
000C0000
000C0000
000C0000
000C0000
000C0000
000C0000
000C0000
0C0C0C00
0C0C0C00
030C3000
030C3000
00CCC000
00CCC000
003F0000
003F0000
000C0000
000C0000
00000000
00000000
FFFFFFC0
FFFFFFC0
FFFFFFC0
FFFFFFC0
ENDCHAR
STARTCHAR bottom_side_mask
ENCODING 17
SWIDTH 506 0
DWIDTH 34 0
BBX 30 32 -14 -4
BITMAP
000FC000
000FC000
000FC000
000FC000
000FC000
000FC000
000FC000
000FC000
000FC000
000FC000
000FC000
000FC000
0F0FC3C0
0F0FC3C0
0FCFCFC0
0FCFCFC0
03FFFF00
03FFFF00
00FFFC00
00FFFC00
003FF000
003FF000
000FC000
000FC000
FFFFFFFC
FFFFFFFC
FFFFFFFC
FFFFFFFC
FFFFFFFC
FFFFFFFC
FFFFFFFC
FFFFFFFC
ENDCHAR
STARTCHAR bottom_tee
ENCODING 18
SWIDTH 506 0
DWIDTH 34 0
BBX 28 20 -14 -2
BITMAP
000F0000
000F0000
000F0000
000F0000
000F0000
000F0000
000F0000
000F0000
000F0000
000F0000
000F0000
000F0000
000F0000
000F0000
000F0000
000F0000
FFFFFFF0
FFFFFFF0
FFFFFFF0
FFFFFFF0
ENDCHAR
STARTCHAR bottom_tee_mask
ENCODING 19
SWIDTH 506 0
DWIDTH 34 0
BBX 32 24 -16 -4
BITMAP
000FF000
000FF000
000FF000
000FF000
000FF000
000FF000
000FF000
000FF000
000FF000
000FF000
000FF000
000FF000
000FF000
000FF000
000FF000
000FF000
FFFFFFFF
FFFFFFFF
FFFFFFFF
FFFFFFFF
FFFFFFFF
FFFFFFFF
FFFFFFFF
FFFFFFFF
ENDCHAR
STARTCHAR box_spiral
ENCODING 20
SWIDTH 506 0
DWIDTH 34 0
BBX 30 32 -16 -16
BITMAP
FFFFFFFC
FFFFFFFC
C0000000
C0000000
CFFFFFFC
CFFFFFFC
CC00000C
CC00000C
CCFFFFCC
CCFFFFCC
CCC000CC
CCC000CC
CCCFFCCC
CCCFFCCC
CCCC0CCC
CCCC0CCC
CCCCCCCC
CCCCCCCC
CCCFCCCC
CCCFCCCC
CCC00CCC
CCC00CCC
CCFFFCCC
CCFFFCCC
CC0000CC
CC0000CC
CFFFFFCC
CFFFFFCC
C000000C
C000000C
FFFFFFFC
FFFFFFFC
ENDCHAR
STARTCHAR box_spiral_mask
ENCODING 21
SWIDTH 506 0
DWIDTH 34 0
BBX 32 32 -16 -16
BITMAP
FFFFFFFF
FFFFFFFF
FFFFFFFF
FFFFFFFF
FFFFFFFF
FFFFFFFF
FFFFFFFF
FFFFFFFF
FFFFFFFF
FFFFFFFF
FFFFFFFF
FFFFFFFF
FFFFFFFF
FFFFFFFF
FFFFFFFF
FFFFFFFF
FFFFFFFF
FFFFFFFF
FFFFFFFF
FFFFFFFF
FFFFFFFF
FFFFFFFF
FFFFFFFF
FFFFFFFF
FFFFFFFF
FFFFFFFF
FFFFFFFF
FFFFFFFF
FFFFFFFF
FFFFFFFF
FFFFFFFF
FFFFFFFF
ENDCHAR
STARTCHAR center_ptr
ENCODING 22
SWIDTH 506 0
DWIDTH 34 0
BBX 20 28 -8 -28
BITMAP
00F000
00F000
00F000
00F000
03FC00
03FC00
03FC00
03FC00
0FFF00
0FFF00
0FFF00
0FFF00
3FFFC0
3FFFC0
3FFFC0
3FFFC0
F0F0F0
F0F0F0
C0F030
C0F030
00F000
00F000
00F000
00F000
00F000
00F000
00F000
00F000
ENDCHAR
STARTCHAR center_ptr_mask
ENCODING 23
SWIDTH 506 0
DWIDTH 34 0
BBX 24 32 -10 -30
BITMAP
00FF00
00FF00
00FF00
00FF00
03FFC0
03FFC0
03FFC0
03FFC0
0FFFF0
0FFFF0
0FFFF0
0FFFF0
3FFFFC
3FFFFC
3FFFFC
3FFFFC
FFFFFF
FFFFFF
FFFFFF
FFFFFF
FFFFFF
FFFFFF
FCFF3F
FCFF3F
00FF00
00FF00
00FF00
00FF00
00FF00
00FF00
00FF00
00FF00
ENDCHAR
STARTCHAR circle
ENCODING 24
SWIDTH 506 0
DWIDTH 34 0
BBX 28 28 -14 -14
BITMAP
003FC000
003FC000
03FFFC00
03FFFC00
0FFFFF00
0FFFFF00
3FC03FC0
3FC03FC0
3F000FC0
3F000FC0
FC0003F0
FC0003F0
FC0003F0
FC0003F0
FC0003F0
FC0003F0
FC0003F0
FC0003F0
3F000FC0
3F000FC0
3FC03FC0
3FC03FC0
0FFFFF00
0FFFFF00
03FFFC00
03FFFC00
003FC000
003FC000
ENDCHAR
STARTCHAR circle_mask
ENCODING 25
SWIDTH 506 0
DWIDTH 34 0
BBX 32 32 -16 -16
BITMAP
003FFC00
003FFC00
03FFFFC0
03FFFFC0
0FFFFFF0
0FFFFFF0
3FFFFFFC
3FFFFFFC
3FFFFFFC
3FFFFFFC
FFF00FFF
FFF00FFF
FFC003FF
FFC003FF
FFC003FF
FFC003FF
FFC003FF
FFC003FF
FFC003FF
FFC003FF
FFF00FFF
FFF00FFF
3FFFFFFC
3FFFFFFC
3FFFFFFC
3FFFFFFC
0FFFFFF0
0FFFFFF0
03FFFFC0
03FFFFC0
003FFC00
003FFC00
ENDCHAR
STARTCHAR clock
ENCODING 26
SWIDTH 506 0
DWIDTH 34 0
BBX 28 32 -12 -26
BITMAP
0FFFFF00
0FFFFF00
3C3FC3C0
3C3FC3C0
F0C0F0F0
F0C0F0F0
C30F0C30
C30F0C30
C3FC0C30
C3FC0C30
C0C03030
C0C03030
F03FC0F0
F03FC0F0
3FFFFFC0
3FFFFFC0
330F0CC0
330F0CC0
330F0CC0
330F0CC0
330F0CC0
330F0CC0
333FCCC0
333FCCC0
F30F0CF0
F30F0CF0
FF000FF0
FF000FF0
FFFFFFF0
FFFFFFF0
FFFFFFF0
FFFFFFF0
ENDCHAR
STARTCHAR clock_mask
ENCODING 27
SWIDTH 506 0
DWIDTH 34 0
BBX 30 32 -12 -26
BITMAP
3FFFFFC0
3FFFFFC0
FCFFC3F0
FCFFC3F0
F3CFFCFC
F3CFFCFC
CF3FCF3C
CF3FCF3C
CFFFFF3C
CFFFFF3C
C3FF3C3C
C3FF3C3C
F0FFF0FC
F0FFF0FC
FFFFFFF0
FFFFFFF0
F33FCCF0
F33FCCF0
F33FCCF0
F33FCCF0
F33FCCF0
F33FCCF0
F3FFFCF0
F3FFFCF0
F33FCCFC
F33FCCFC
FF0F0FFC
FF0F0FFC
FFFFFFFC
FFFFFFFC
FFFFFFFC
FFFFFFFC
ENDCHAR
STARTCHAR coffee_mug
ENCODING 28
SWIDTH 506 0
DWIDTH 34 0
BBX 30 32 -14 -14
BITMAP
03FFFF00
03FFFF00
0C0000C0
0C0000C0
3C00003C
3C00003C
330003CC
330003CC
30FFFC0C
30FFFC0C
F000000C
F000000C
F000000C
F000000C
3000000C
3000000C
3000000C
3000000C
33C303CC
33C303CC
3CCCCCCC
3CCCCCCC
FCCFCCCC
FCCFCCCC
F3CCC3CC
F3CCC3CC
3000000C
3000000C
3000000C
3000000C
0FFFFFF0
0FFFFFF0
ENDCHAR
STARTCHAR coffee_mug_mask
ENCODING 29
SWIDTH 506 0
DWIDTH 34 0
BBX 32 32 -14 -14
BITMAP
03FFFF00
03FFFF00
0FFFFFC0
0FFFFFC0
3FFFFFFF
3FFFFFFF
3FFFFFFF
3FFFFFFF
FFFFFFFF
FFFFFFFF
FFFFFFFF
FFFFFFFF
FFFFFFFF
FFFFFFFF
FFFFFFFF
FFFFFFFF
3FFFFFFF
3FFFFFFF
3FFFFFFF
3FFFFFFF
FFFFFFFF
FFFFFFFF
FFFFFFFF
FFFFFFFF
FFFFFFFF
FFFFFFFF
FFFFFFFF
FFFFFFFF
3FFFFFFF
3FFFFFFF
0FFFFFF0
0FFFFFF0
ENDCHAR
STARTCHAR cross
ENCODING 30
SWIDTH 506 0
DWIDTH 34 0
BBX 32 30 -14 -16
BITMAP
000CC000
000CC000
000CC000
000CC000
000CC000
000CC000
000CC000
000CC000
000CC000
000CC000
000CC000
000CC000
FFFCFFFF
FFFCFFFF
00000000
00000000
FFFCFFFF
FFFCFFFF
000CC000
000CC000
000CC000
000CC000
000CC000
000CC000
000CC000
000CC000
000CC000
000CC000
000CC000
000CC000
ENDCHAR
STARTCHAR cross_mask
ENCODING 31
SWIDTH 506 0
DWIDTH 34 0
BBX 32 32 -14 -18
BITMAP
003FF000
003FF000
003FF000
003FF000
003FF000
003FF000
003FF000
003FF000
003FF000
003FF000
FFFFFFFF
FFFFFFFF
FFFFFFFF
FFFFFFFF
FFFFFFFF
FFFFFFFF
FFFFFFFF
FFFFFFFF
FFFFFFFF
FFFFFFFF
003FF000
003FF000
003FF000
003FF000
003FF000
003FF000
003FF000
003FF000
003FF000
003FF000
003FF000
003FF000
ENDCHAR
STARTCHAR cross_reverse
ENCODING 32
SWIDTH 506 0
DWIDTH 34 0
BBX 32 30 -14 -16
BITMAP
300CC030
300CC030
CC0CC0CC
CC0CC0CC
330CC330
330CC330
0CCCCCC0
0CCCCCC0
033CF300
033CF300
00CCCC00
00CCCC00
FFF33FFF
FFF33FFF
000CC000
000CC000
FFF33FFF
FFF33FFF
00CCCC00
00CCCC00
033CF300
033CF300
0CCCCCC0
0CCCCCC0
330CC330
330CC330
CC0CC0CC
CC0CC0CC
300CC030
300CC030
ENDCHAR
STARTCHAR cross_reverse_mask
ENCODING 33
SWIDTH 506 0
DWIDTH 34 0
BBX 32 30 -14 -16
BITMAP
3C3CF0F0
3C3CF0F0
CF3CF3CF
CF3CF3CF
F3FCFF3C
F3FCFF3C
3CFCFCF0
3CFCFCF0
0F3CF3C0
0F3CF3C0
FFCCCFFF
FFCCCFFF
FFF03FFF
FFF03FFF
00030000
00030000
FFF03FFF
FFF03FFF
FFCCCFFF
FFCCCFFF
0F3CF3C0
0F3CF3C0
3CFCFCF0
3CFCFCF0
F3FCFF3C
F3FCFF3C
CF3CF3CF
CF3CF3CF
3C3CF0F0
3C3CF0F0
ENDCHAR
STARTCHAR crosshair
ENCODING 34
SWIDTH 506 0
DWIDTH 34 0
BBX 32 30 -14 -16
BITMAP
00030000
00030000
00030000
00030000
00030000
00030000
00030000
00030000
00030000
00030000
00030000
00030000
00030000
00030000
FFFCFFFF
FFFCFFFF
00030000
00030000
00030000
00030000
00030000
00030000
00030000
00030000
00030000
00030000
00030000
00030000
00030000
00030000
ENDCHAR
STARTCHAR crosshair_mask
ENCODING 35
SWIDTH 506 0
DWIDTH 34 0
BBX 32 32 -14 -18
BITMAP
000FC000
000FC000
000FC000
000FC000
000FC000
000FC000
000FC000
000FC000
000FC000
000FC000
000FC000
000FC000
FFFFFFFF
FFFFFFFF
FFFFFFFF
FFFFFFFF
FFFFFFFF
FFFFFFFF
000FC000
000FC000
000FC000
000FC000
000FC000
000FC000
000FC000
000FC000
000FC000
000FC000
000FC000
000FC000
000FC000
000FC000
ENDCHAR
STARTCHAR diamond_cross
ENCODING 36
SWIDTH 506 0
DWIDTH 34 0
BBX 30 30 -14 -16
BITMAP
000CC000
000CC000
003CF000
003CF000
00CCCC00
00CCCC00
030CC300
030CC300
0C0CC0C0
0C0CC0C0
300CC030
300CC030
FFFCFFFC
FFFCFFFC
00000000
00000000
FFFCFFFC
FFFCFFFC
300CC030
300CC030
0C0CC0C0
0C0CC0C0
030CC300
030CC300
00CCCC00
00CCCC00
003CF000
003CF000
000CC000
000CC000
ENDCHAR
STARTCHAR diamond_cross_mask
ENCODING 37
SWIDTH 506 0
DWIDTH 34 0
BBX 32 32 -14 -18
BITMAP
003FF000
003FF000
00FFFC00
00FFFC00
03FFFF00
03FFFF00
0FCFCFC0
0FCFCFC0
3F0FC3F0
3F0FC3F0
FC0FC0FC
FC0FC0FC
FFFFFFFF
FFFFFFFF
FFFCFFFF
FFFCFFFF
FFFFFFFF
FFFFFFFF
FC0FC0FC
FC0FC0FC
3F0FC3F0
3F0FC3F0
0FCFCFC0
0FCFCFC0
03FFFF00
03FFFF00
00FFFC00
00FFFC00
003FF000
003FF000
000FC000
000FC000
ENDCHAR
STARTCHAR dot
ENCODING 38
SWIDTH 506 0
DWIDTH 34 0
BBX 20 20 -10 -10
BITMAP
03FC00
03FC00
3FFFC0
3FFFC0
3FFFC0
3FFFC0
FFFFF0
FFFFF0
FFFFF0
FFFFF0
FFFFF0
FFFFF0
FFFFF0
FFFFF0
3FFFC0
3FFFC0
3FFFC0
3FFFC0
03FC00
03FC00
ENDCHAR
STARTCHAR dot_mask
ENCODING 39
SWIDTH 506 0
DWIDTH 34 0
BBX 24 24 -12 -12
BITMAP
03FFC0
03FFC0
3FFFFC
3FFFFC
3FFFFC
3FFFFC
FFFFFF
FFFFFF
FFFFFF
FFFFFF
FFFFFF
FFFFFF
FFFFFF
FFFFFF
FFFFFF
FFFFFF
FFFFFF
FFFFFF
3FFFFC
3FFFFC
3FFFFC
3FFFFC
03FFC0
03FFC0
ENDCHAR
STARTCHAR dotbox
ENCODING 40
SWIDTH 506 0
DWIDTH 34 0
BBX 24 24 -12 -14
BITMAP
FFFFFF
FFFFFF
C00003
C00003
C00003
C00003
C00003
C00003
C00003
C00003
C03C03
C03C03
C03C03
C03C03
C00003
C00003
C00003
C00003
C00003
C00003
C00003
C00003
FFFFFF
FFFFFF
ENDCHAR
STARTCHAR dotbox_mask
ENCODING 41
SWIDTH 506 0
DWIDTH 34 0
BBX 28 28 -14 -16
BITMAP
FFFFFFF0
FFFFFFF0
FFFFFFF0
FFFFFFF0
FFFFFFF0
FFFFFFF0
FC0003F0
FC0003F0
FC0003F0
FC0003F0
FC3FC3F0
FC3FC3F0
FC3FC3F0
FC3FC3F0
FC3FC3F0
FC3FC3F0
FC3FC3F0
FC3FC3F0
FC0003F0
FC0003F0
FC0003F0
FC0003F0
FFFFFFF0
FFFFFFF0
FFFFFFF0
FFFFFFF0
FFFFFFF0
FFFFFFF0
ENDCHAR
STARTCHAR double_arrow
ENCODING 42
SWIDTH 506 0
DWIDTH 34 0
BBX 20 28 -10 -14
BITMAP
00F000
00F000
03FC00
03FC00
0FFF00
0FFF00
3CF3C0
3CF3C0
F0F0F0
F0F0F0
00F000
00F000
00F000
00F000
00F000
00F000
00F000
00F000
F0F0F0
F0F0F0
3CF3C0
3CF3C0
0FFF00
0FFF00
03FC00
03FC00
00F000
00F000
ENDCHAR
STARTCHAR double_arrow_mask
ENCODING 43
SWIDTH 506 0
DWIDTH 34 0
BBX 24 32 -12 -16
BITMAP
00FF00
00FF00
03FFC0
03FFC0
0FFFF0
0FFFF0
3FFFFC
3FFFFC
FFFFFF
FFFFFF
FFFFFF
FFFFFF
FFFFFF
FFFFFF
00FF00
00FF00
00FF00
00FF00
FFFFFF
FFFFFF
FFFFFF
FFFFFF
FFFFFF
FFFFFF
3FFFFC
3FFFFC
0FFFF0
0FFFF0
03FFC0
03FFC0
00FF00
00FF00
ENDCHAR
STARTCHAR draft_large
ENCODING 44
SWIDTH 506 0
DWIDTH 34 0
BBX 30 30 -28 -30
BITMAP
0000000C
0000000C
000000F0
000000F0
00000FF0
00000FF0
0000FFC0
0000FFC0
000FFFC0
000FFFC0
00FFFF00
00FFFF00
0FFFFF00
0FFFFF00
0003FC00
0003FC00
000CFC00
000CFC00
0030F000
0030F000
00C0F000
00C0F000
0300C000
0300C000
0C00C000
0C00C000
30000000
30000000
C0000000
C0000000
ENDCHAR
STARTCHAR draft_large_mask
ENCODING 45
SWIDTH 506 0
DWIDTH 34 0
BBX 30 32 -28 -32
BITMAP
0000003C
0000003C
000003FC
000003FC
00003FFC
00003FFC
0003FFF0
0003FFF0
003FFFC0
003FFFC0
03FFFFC0
03FFFFC0
3FFFFF00
3FFFFF00
3FFFFF00
3FFFFF00
003FFC00
003FFC00
00FFFC00
00FFFC00
03F3F000
03F3F000
0FC3F000
0FC3F000
3F03C000
3F03C000
FC03C000
FC03C000
F0000000
F0000000
C0000000
C0000000
ENDCHAR
STARTCHAR draft_small
ENCODING 46
SWIDTH 506 0
DWIDTH 34 0
BBX 30 30 -28 -30
BITMAP
0000000C
0000000C
000000F0
000000F0
00000FF0
00000FF0
0000FFC0
0000FFC0
000FFFC0
000FFFC0
00003F00
00003F00
0000CF00
0000CF00
00030C00
00030C00
000C0C00
000C0C00
00300000
00300000
00C00000
00C00000
03000000
03000000
0C000000
0C000000
30000000
30000000
C0000000
C0000000
ENDCHAR
STARTCHAR draft_small_mask
ENCODING 47
SWIDTH 506 0
DWIDTH 34 0
BBX 30 30 -28 -30
BITMAP
0000003C
0000003C
000003FC
000003FC
00003FF0
00003FF0
0003FFF0
0003FFF0
003FFFC0
003FFFC0
003FFFC0
003FFFC0
0003FF00
0003FF00
000FFF00
000FFF00
003F3C00
003F3C00
00FC3000
00FC3000
03F00000
03F00000
0FC00000
0FC00000
3F000000
3F000000
FC000000
FC000000
F0000000
F0000000
ENDCHAR
STARTCHAR draped_box
ENCODING 48
SWIDTH 506 0
DWIDTH 34 0
BBX 24 24 -12 -14
BITMAP
FFFFFF
FFFFFF
C0C303
C0C303
C3C3C3
C3C3C3
CF00F3
CF00F3
FC003F
FC003F
C03C03
C03C03
C03C03
C03C03
FC003F
FC003F
CF00F3
CF00F3
C3C3C3
C3C3C3
C0C303
C0C303
FFFFFF
FFFFFF
ENDCHAR
STARTCHAR draped_box_mask
ENCODING 49
SWIDTH 506 0
DWIDTH 34 0
BBX 28 28 -14 -16
BITMAP
FFFFFFF0
FFFFFFF0
FFFFFFF0
FFFFFFF0
F0FFF0F0
F0FFF0F0
F3FFFCF0
F3FFFCF0
FFF0FFF0
FFF0FFF0
FFCF3FF0
FFCF3FF0
FF3FCFF0
FF3FCFF0
FF3FCFF0
FF3FCFF0
FFCF3FF0
FFCF3FF0
FFF0FFF0
FFF0FFF0
F3FFFCF0
F3FFFCF0
F0FFF0F0
F0FFF0F0
FFFFFFF0
FFFFFFF0
FFFFFFF0
FFFFFFF0
ENDCHAR
STARTCHAR exchange
ENCODING 50
SWIDTH 506 0
DWIDTH 34 0
BBX 28 28 -12 -16
BITMAP
C0FFF000
C0FFF000
F3FFFC00
F3FFFC00
FFC00F00
FFC00F00
C3000300
C3000300
C3C00000
C3C00000
FFF00000
FFF00000
00000000
00000000
00000000
00000000
0000FFF0
0000FFF0
00003C30
00003C30
0C000C30
0C000C30
0F003FF0
0F003FF0
03FFFCF0
03FFFCF0
00FFF030
00FFF030
ENDCHAR
STARTCHAR exchange_mask
ENCODING 51
SWIDTH 506 0
DWIDTH 34 0
BBX 32 32 -14 -18
BITMAP
F03FFC00
F03FFC00
FCFFFF00
FCFFFF00
FFFFFFC0
FFFFFFC0
FFFFFFF0
FFFFFFF0
FFF003F0
FFF003F0
FFFF00F0
FFFF00F0
FFFF0000
FFFF0000
FFFF0000
FFFF0000
0000FFFF
0000FFFF
0000FFFF
0000FFFF
0F003FFF
0F003FFF
0FC00FFF
0FC00FFF
0FFFFFFF
0FFFFFFF
03FFFFFF
03FFFFFF
00FFFF3F
00FFFF3F
003FFC0F
003FFC0F
ENDCHAR
STARTCHAR fleur
ENCODING 52
SWIDTH 506 0
DWIDTH 34 0
BBX 28 28 -14 -14
BITMAP
000F0000
000F0000
003FC000
003FC000
00FFF000
00FFF000
000F0000
000F0000
0C0F0300
0C0F0300
3C0F03C0
3C0F03C0
FFFFFFF0
FFFFFFF0
FFFFFFF0
FFFFFFF0
3C0F03C0
3C0F03C0
0C0F0300
0C0F0300
000F0000
000F0000
00FFF000
00FFF000
003FC000
003FC000
000F0000
000F0000
ENDCHAR
STARTCHAR fleur_mask
ENCODING 53
SWIDTH 506 0
DWIDTH 34 0
BBX 32 32 -16 -16
BITMAP
000FF000
000FF000
000FFC00
000FFC00
003FFC00
003FFC00
00FFFF00
00FFFF00
033FFCC0
033FFCC0
0FCFF3F0
0FCFF3F0
FFFFFFFF
FFFFFFFF
FFFFFFFF
FFFFFFFF
FFFFFFFF
FFFFFFFF
FFFFFFFF
FFFFFFFF
0FCFF3F0
0FCFF3F0
033FFCC0
033FFCC0
00FFFF00
00FFFF00
003FFC00
003FFC00
000FF000
000FF000
000FF000
000FF000
ENDCHAR
STARTCHAR gobbler
ENCODING 54
SWIDTH 506 0
DWIDTH 34 0
BBX 32 30 -28 -26
BITMAP
00003FC0
00003FC0
00003F00
00003F00
C0000F0F
C0000F0F
C3FFCF00
C3FFCF00
FFFFFF00
FFFFFF00
FFFC0F00
FFFC0F00
FFF00F00
FFF00F00
3C000FC0
3C000FC0
0000FF00
0000FF00
03FFFC00
03FFFC00
00C00000
00C00000
00C00000
00C00000
00C00000
00C00000
00C00000
00C00000
03FC0000
03FC0000
ENDCHAR
STARTCHAR gobbler_mask
ENCODING 55
SWIDTH 506 0
DWIDTH 34 0
BBX 32 32 -28 -26
BITMAP
0000FFF0
0000FFF0
0000FFF0
0000FFF0
F000FFFF
F000FFFF
FFFFFFFF
FFFFFFFF
FFFFFFFF
FFFFFFFF
FFFFFFF0
FFFFFFF0
FFFFFFF0
FFFFFFF0
FFFFFFF0
FFFFFFF0
FFFFFFF0
FFFFFFF0
FFFFFFF0
FFFFFFF0
3FFFFFC0
3FFFFFC0
03FFFF00
03FFFF00
03F00000
03F00000
03F00000
03F00000
0FFF0000
0FFF0000
0FFF0000
0FFF0000
ENDCHAR
STARTCHAR gumby
ENCODING 56
SWIDTH 506 0
DWIDTH 34 0
BBX 32 32 -4 -32
BITMAP
0FFF0000
0FFF0000
0300C000
0300C000
F0C03000
F0C03000
FCCCCC00
FCCCCC00
F0C00C00
F0C00C00
F0CFCC00
F0CFCC00
FFC00FF0
FFC00FF0
0FC00FFF
0FC00FFF
00C00C3F
00C00C3F
00C00C3F
00C00C3F
00C30CFF
00C30CFF
00C30C3F
00C30C3F
00C30C00
00C30C00
03030300
03030300
0C0300C0
0C0300C0
0FFCFFC0
0FFCFFC0
ENDCHAR
STARTCHAR gumby_mask
ENCODING 57
SWIDTH 506 0
DWIDTH 34 0
BBX 32 32 -4 -32
BITMAP
0FFF0000
0FFF0000
F3FFC000
F3FFC000
FCFFF000
FCFFF000
FFFFFC00
FFFFFC00
FCFFFC00
FCFFFC00
FCFFFFF0
FCFFFFF0
FFFFFFFC
FFFFFFFC
FFFFFFFF
FFFFFFFF
0FFFFCFF
0FFFFCFF
00FFFCFF
00FFFCFF
00FFFFFF
00FFFFFF
00FFFCFF
00FFFCFF
00FFFC3F
00FFFC3F
03FFFF00
03FFFF00
0FFFFFC0
0FFFFFC0
0FFCFFC0
0FFCFFC0
ENDCHAR
STARTCHAR hand1
ENCODING 58
SWIDTH 506 0
DWIDTH 34 0
BBX 26 32 -24 -32
BITMAP
000003C0
000003C0
00003FC0
00003FC0
0003FC00
0003FC00
000FF000
000FF000
003FC000
003FC000
00FFF000
00FFF000
03FFFC00
03FFFC00
33FFF000
33FFF000
FFFFFC00
FFFFFC00
CFFFFC00
CFFFFC00
00FFF000
00FFF000
00FFC000
00FFC000
C3300000
C3300000
F0300000
F0300000
3CC00000
3CC00000
0F000000
0F000000
ENDCHAR
STARTCHAR hand1_mask
ENCODING 59
SWIDTH 506 0
DWIDTH 34 0
BBX 26 32 -24 -32
BITMAP
00000FC0
00000FC0
0000FFC0
0000FFC0
000FFF00
000FFF00
003FFC00
003FFC00
00FFF000
00FFF000
03FFFC00
03FFFC00
3FFFFF00
3FFFFF00
FFFFFF00
FFFFFF00
FFFFFF00
FFFFFF00
FFFFFF00
FFFFFF00
FFFFFC00
FFFFFC00
FFFFF000
FFFFF000
FFFFC000
FFFFC000
FFFC0000
FFFC0000
FFF00000
FFF00000
3FC00000
3FC00000
ENDCHAR
STARTCHAR hand2
ENCODING 60
SWIDTH 506 0
DWIDTH 34 0
BBX 30 28 0 -28
BITMAP
3FFFC000
3FFFC000
C0003000
C0003000
3FFC0C00
3FFC0C00
03000300
03000300
00FC0300
00FC0300
03000300
03000300
00FC0CC0
00FC0CC0
03003030
03003030
00F0C00C
00F0C00C
000F0030
000F0030
000C30C0
000C30C0
00030300
00030300
0000CC00
0000CC00
00003000
00003000
ENDCHAR
STARTCHAR hand2_mask
ENCODING 61
SWIDTH 506 0
DWIDTH 34 0
BBX 32 32 0 -30
BITMAP
3FFFC000
3FFFC000
FFFFF000
FFFFF000
FFFFFC00
FFFFFC00
FFFFFF00
FFFFFF00
3FFFFFC0
3FFFFFC0
03FFFFC0
03FFFFC0
0FFFFFC0
0FFFFFC0
03FFFFF0
03FFFFF0
0FFFFFFC
0FFFFFFC
03FFFFFF
03FFFFFF
00FFFFFC
00FFFFFC
003FFFF0
003FFFF0
000FFFC0
000FFFC0
0003FF00
0003FF00
0000FC00
0000FC00
00003000
00003000
ENDCHAR
STARTCHAR heart
ENCODING 62
SWIDTH 506 0
DWIDTH 34 0
BBX 30 28 -12 -12
BITMAP
0FFCFFC0
0FFCFFC0
3C0FC0F0
3C0FC0F0
F003003C
F003003C
C000000C
C000000C
C000000C
C000000C
C000000C
C000000C
C000000C
C000000C
F000003C
F000003C
3C0000F0
3C0000F0
0F0003C0
0F0003C0
03C00F00
03C00F00
00F03C00
00F03C00
003CF000
003CF000
000FC000
000FC000
ENDCHAR
STARTCHAR heart_mask
ENCODING 63
SWIDTH 506 0
DWIDTH 34 0
BBX 30 28 -12 -12
BITMAP
0FFCFFC0
0FFCFFC0
3FFFFFF0
3FFFFFF0
FC0FC0FC
FC0FC0FC
F003003C
F003003C
F000003C
F000003C
F000003C
F000003C
F00CC03C
F00CC03C
FC0300FC
FC0300FC
3F0003F0
3F0003F0
0FC00FC0
0FC00FC0
03F03F00
03F03F00
00FFFC00
00FFFC00
003FF000
003FF000
000FC000
000FC000
ENDCHAR
STARTCHAR icon
ENCODING 64
SWIDTH 506 0
DWIDTH 34 0
BBX 32 32 -16 -16
BITMAP
FFFFFFFF
FFFFFFFF
F3333333
F3333333
CCCCCCCF
CCCCCCCF
F3333333
F3333333
CC0000CF
CC0000CF
F3000033
F3000033
CC0000CF
CC0000CF
F3000033
F3000033
CC0000CF
CC0000CF
F3000033
F3000033
CC0000CF
CC0000CF
F3000033
F3000033
CCCCCCCF
CCCCCCCF
F3333333
F3333333
CCCCCCCF
CCCCCCCF
FFFFFFFF
FFFFFFFF
ENDCHAR
STARTCHAR icon_mask
ENCODING 65
SWIDTH 506 0
DWIDTH 34 0
BBX 32 32 -16 -16
BITMAP
FFFFFFFF
FFFFFFFF
FFFFFFFF
FFFFFFFF
FFFFFFFF
FFFFFFFF
FFFFFFFF
FFFFFFFF
FFFFFFFF
FFFFFFFF
FFFFFFFF
FFFFFFFF
FFFFFFFF
FFFFFFFF
FFFFFFFF
FFFFFFFF
FFFFFFFF
FFFFFFFF
FFFFFFFF
FFFFFFFF
FFFFFFFF
FFFFFFFF
FFFFFFFF
FFFFFFFF
FFFFFFFF
FFFFFFFF
FFFFFFFF
FFFFFFFF
FFFFFFFF
FFFFFFFF
FFFFFFFF
FFFFFFFF
ENDCHAR
STARTCHAR iron_cross
ENCODING 66
SWIDTH 506 0
DWIDTH 34 0
BBX 28 28 -14 -16
BITMAP
3FFFFFC0
3FFFFFC0
0FFFFF00
0FFFFF00
C3FFFC30
C3FFFC30
F0FFF0F0
F0FFF0F0
FC3FC3F0
FC3FC3F0
FF0F0FF0
FF0F0FF0
FFFFFFF0
FFFFFFF0
FFFFFFF0
FFFFFFF0
FF0F0FF0
FF0F0FF0
FC3FC3F0
FC3FC3F0
F0FFF0F0
F0FFF0F0
C3FFFC30
C3FFFC30
0FFFFF00
0FFFFF00
3FFFFFC0
3FFFFFC0
ENDCHAR
STARTCHAR iron_cross_mask
ENCODING 67
SWIDTH 506 0
DWIDTH 34 0
BBX 32 32 -16 -18
BITMAP
0FFFFFF0
0FFFFFF0
3FFFFFFC
3FFFFFFC
3FFFFFFC
3FFFFFFC
FFFFFFFF
FFFFFFFF
FFFFFFFF
FFFFFFFF
FFFFFFFF
FFFFFFFF
FFFFFFFF
FFFFFFFF
FFFFFFFF
FFFFFFFF
FFFFFFFF
FFFFFFFF
FFFFFFFF
FFFFFFFF
FFFFFFFF
FFFFFFFF
FFFFFFFF
FFFFFFFF
FFFFFFFF
FFFFFFFF
3FFFFFFC
3FFFFFFC
3FFFFFFC
3FFFFFFC
0FFFFFF0
0FFFFFF0
ENDCHAR
STARTCHAR left_ptr
ENCODING 68
SWIDTH 506 0
DWIDTH 34 0
BBX 16 28 0 -28
BITMAP
C000
C000
F000
F000
FC00
FC00
FF00
FF00
FFC0
FFC0
FFF0
FFF0
FFFC
FFFC
FFFF
FFFF
FFC0
FFC0
F3C0
F3C0
C0F0
C0F0
00F0
00F0
003C
003C
003C
003C
ENDCHAR
STARTCHAR left_ptr_mask
ENCODING 69
SWIDTH 506 0
DWIDTH 34 0
BBX 20 32 -2 -30
BITMAP
F00000
F00000
FC0000
FC0000
FF0000
FF0000
FFC000
FFC000
FFF000
FFF000
FFFC00
FFFC00
FFFF00
FFFF00
FFFFC0
FFFFC0
FFFFF0
FFFFF0
FFFFF0
FFFFF0
FFFC00
FFFC00
FCFF00
FCFF00
F0FF00
F0FF00
003FC0
003FC0
003FC0
003FC0
000F00
000F00
ENDCHAR
STARTCHAR left_side
ENCODING 70
SWIDTH 506 0
DWIDTH 34 0
BBX 28 26 0 -14
BITMAP
F0000000
F0000000
F0000000
F0000000
F0030000
F0030000
F00C0000
F00C0000
F0300000
F0300000
F0C00000
F0C00000
F3FFFFF0
F3FFFFF0
F0C00000
F0C00000
F0300000
F0300000
F00C0000
F00C0000
F0030000
F0030000
F0000000
F0000000
F0000000
F0000000
ENDCHAR
STARTCHAR left_side_mask
ENCODING 71
SWIDTH 506 0
DWIDTH 34 0
BBX 32 30 -2 -16
BITMAP
FF000000
FF000000
FF000000
FF000000
FF00F000
FF00F000
FF03F000
FF03F000
FF0FC000
FF0FC000
FF3F0000
FF3F0000
FFFFFFFF
FFFFFFFF
FFFFFFFF
FFFFFFFF
FFFFFFFF
FFFFFFFF
FF3F0000
FF3F0000
FF0FC000
FF0FC000
FF03F000
FF03F000
FF00F000
FF00F000
FF000000
FF000000
FF000000
FF000000
ENDCHAR
STARTCHAR left_tee
ENCODING 72
SWIDTH 506 0
DWIDTH 34 0
BBX 20 28 0 -14
BITMAP
F00000
F00000
F00000
F00000
F00000
F00000
F00000
F00000
F00000
F00000
F00000
F00000
FFFFF0
FFFFF0
FFFFF0
FFFFF0
F00000
F00000
F00000
F00000
F00000
F00000
F00000
F00000
F00000
F00000
F00000
F00000
ENDCHAR
STARTCHAR left_tee_mask
ENCODING 73
SWIDTH 506 0
DWIDTH 34 0
BBX 24 32 -2 -16
BITMAP
FF0000
FF0000
FF0000
FF0000
FF0000
FF0000
FF0000
FF0000
FF0000
FF0000
FF0000
FF0000
FFFFFF
FFFFFF
FFFFFF
FFFFFF
FFFFFF
FFFFFF
FFFFFF
FFFFFF
FF0000
FF0000
FF0000
FF0000
FF0000
FF0000
FF0000
FF0000
FF0000
FF0000
FF0000
FF0000
ENDCHAR
STARTCHAR leftbutton
ENCODING 74
SWIDTH 506 0
DWIDTH 34 0
BBX 32 32 -16 -16
BITMAP
C000000F
C000000F
3FFFFFF3
3FFFFFF3
3FFFFFF3
3FFFFFF3
30303033
30303033
30333333
30333333
30333333
30333333
30333333
30333333
30333333
30333333
30303033
30303033
3FFFFFF3
3FFFFFF3
3FFFFFF3
3FFFFFF3
3FFFFFF3
3FFFFFF3
3FFFFFF3
3FFFFFF3
3FFFFFF3
3FFFFFF3
3FFFFFF3
3FFFFFF3
C000000F
C000000F
ENDCHAR
STARTCHAR leftbutton_mask
ENCODING 75
SWIDTH 506 0
DWIDTH 34 0
BBX 30 32 -16 -16
BITMAP
3FFFFFF0
3FFFFFF0
FFFFFFFC
FFFFFFFC
FFFFFFFC
FFFFFFFC
FFFFFFFC
FFFFFFFC
FFFFFFFC
FFFFFFFC
FFFFFFFC
FFFFFFFC
FFFFFFFC
FFFFFFFC
FFFFFFFC
FFFFFFFC
FFFFFFFC
FFFFFFFC
FFFFFFFC
FFFFFFFC
FFFFFFFC
FFFFFFFC
FFFFFFFC
FFFFFFFC
FFFFFFFC
FFFFFFFC
FFFFFFFC
FFFFFFFC
FFFFFFFC
FFFFFFFC
3FFFFFF0
3FFFFFF0
ENDCHAR
STARTCHAR ll_angle
ENCODING 76
SWIDTH 506 0
DWIDTH 34 0
BBX 20 20 0 -2
BITMAP
F00000
F00000
F00000
F00000
F00000
F00000
F00000
F00000
F00000
F00000
F00000
F00000
F00000
F00000
F00000
F00000
FFFFF0
FFFFF0
FFFFF0
FFFFF0
ENDCHAR
STARTCHAR ll_angle_mask
ENCODING 77
SWIDTH 506 0
DWIDTH 34 0
BBX 24 24 -2 -4
BITMAP
FF0000
FF0000
FF0000
FF0000
FF0000
FF0000
FF0000
FF0000
FF0000
FF0000
FF0000
FF0000
FF0000
FF0000
FF0000
FF0000
FFFFFF
FFFFFF
FFFFFF
FFFFFF
FFFFFF
FFFFFF
FFFFFF
FFFFFF
ENDCHAR
STARTCHAR lr_angle
ENCODING 78
SWIDTH 506 0
DWIDTH 34 0
BBX 20 20 -18 -2
BITMAP
0000F0
0000F0
0000F0
0000F0
0000F0
0000F0
0000F0
0000F0
0000F0
0000F0
0000F0
0000F0
0000F0
0000F0
0000F0
0000F0
FFFFF0
FFFFF0
FFFFF0
FFFFF0
ENDCHAR
STARTCHAR lr_angle_mask
ENCODING 79
SWIDTH 506 0
DWIDTH 34 0
BBX 24 24 -20 -4
BITMAP
0000FF
0000FF
0000FF
0000FF
0000FF
0000FF
0000FF
0000FF
0000FF
0000FF
0000FF
0000FF
0000FF
0000FF
0000FF
0000FF
FFFFFF
FFFFFF
FFFFFF
FFFFFF
FFFFFF
FFFFFF
FFFFFF
FFFFFF
ENDCHAR
STARTCHAR man
ENCODING 80
SWIDTH 506 0
DWIDTH 34 0
BBX 32 32 -28 -22
BITMAP
000FC000
000FC000
03FCFF00
03FCFF00
000CC000
000CC000
C0030000
C0030000
300FC03F
300FC03F
0C3030CF
0C3030CF
03F33F00
03F33F00
00333000
00333000
00303000
00303000
000CC000
000CC000
00303000
00303000
00C30C00
00C30C00
030CC300
030CC300
03303300
03303300
3FC00FF0
3FC00FF0
FFC00FFF
FFC00FFF
ENDCHAR
STARTCHAR man_mask
ENCODING 81
SWIDTH 506 0
DWIDTH 34 0
BBX 32 32 -28 -22
BITMAP
03FFFC00
03FFFC00
0FFFFF00
0FFFFF00
0FFFFFC0
0FFFFFC0
F00FC00C
F00FC00C
FC3FF03F
FC3FF03F
3FFFFFFF
3FFFFFFF
0FFFFFCF
0FFFFFCF
03FFFF00
03FFFF00
003FFC00
003FFC00
003FF000
003FF000
00FFFC00
00FFFC00
03FFFF00
03FFFF00
0FFFFFC0
0FFFFFC0
3FFCFFF0
3FFCFFF0
FFF03FFF
FFF03FFF
FFF03FFF
FFF03FFF
ENDCHAR
STARTCHAR middlebutton
ENCODING 82
SWIDTH 506 0
DWIDTH 34 0
BBX 32 32 -16 -16
BITMAP
C000000F
C000000F
3FFFFFF3
3FFFFFF3
3FFFFFF3
3FFFFFF3
30303033
30303033
33303333
33303333
33303333
33303333
33303333
33303333
33303333
33303333
30303033
30303033
3FFFFFF3
3FFFFFF3
3FFFFFF3
3FFFFFF3
3FFFFFF3
3FFFFFF3
3FFFFFF3
3FFFFFF3
3FFFFFF3
3FFFFFF3
3FFFFFF3
3FFFFFF3
C000000F
C000000F
ENDCHAR
STARTCHAR middlebutton_mask
ENCODING 83
SWIDTH 506 0
DWIDTH 34 0
BBX 30 32 -16 -16
BITMAP
3FFFFFF0
3FFFFFF0
FFFFFFFC
FFFFFFFC
FFFFFFFC
FFFFFFFC
FFFFFFFC
FFFFFFFC
FFFFFFFC
FFFFFFFC
FFFFFFFC
FFFFFFFC
FFFFFFFC
FFFFFFFC
FFFFFFFC
FFFFFFFC
FFFFFFFC
FFFFFFFC
FFFFFFFC
FFFFFFFC
FFFFFFFC
FFFFFFFC
FFFFFFFC
FFFFFFFC
FFFFFFFC
FFFFFFFC
FFFFFFFC
FFFFFFFC
FFFFFFFC
FFFFFFFC
3FFFFFF0
3FFFFFF0
ENDCHAR
STARTCHAR mouse
ENCODING 84
SWIDTH 506 0
DWIDTH 34 0
BBX 30 28 -8 -26
BITMAP
003F0000
003F0000
00F00000
00F00000
003C0000
003C0000
000F0000
000F0000
3FFFFFC0
3FFFFFC0
C0000030
C0000030
CF0F0F3C
CF0F0F3C
CF0F0F3C
CF0F0F3C
CF0F0F3C
CF0F0F3C
C000003C
C000003C
C000003C
C000003C
3C0003F0
3C0003F0
03C03C00
03C03C00
003FC000
003FC000
ENDCHAR
STARTCHAR mouse_mask
ENCODING 85
SWIDTH 506 0
DWIDTH 34 0
BBX 32 32 -8 -30
BITMAP
00FFC000
00FFC000
03FC0000
03FC0000
00FF0000
00FF0000
003F0000
003F0000
3FFFFFC0
3FFFFFC0
FFFFFFF0
FFFFFFF0
FFFFFFFF
FFFFFFFF
FFFFFFFF
FFFFFFFF
FFFFFFFF
FFFFFFFF
FFFFFFFF
FFFFFFFF
FFFFFFFF
FFFFFFFF
FFFFFFFF
FFFFFFFF
0FFFFF3F
0FFFFF3F
03FFFC00
03FFFC00
00FFF000
00FFF000
003FC000
003FC000
ENDCHAR
STARTCHAR pencil
ENCODING 86
SWIDTH 506 0
DWIDTH 34 0
BBX 22 32 -20 -2
BITMAP
3F0000
3F0000
C0C000
C0C000
C0F000
C0F000
30CC00
30CC00
3FCC00
3FCC00
0C0300
0C0300
030300
030300
0300C0
0300C0
00C0C0
00C0C0
00F030
00F030
003030
003030
000C0C
000C0C
0003FC
0003FC
0000FC
0000FC
00003C
00003C
00000C
00000C
ENDCHAR
STARTCHAR pencil_mask
ENCODING 87
SWIDTH 506 0
DWIDTH 34 0
BBX 26 32 -22 -2
BITMAP
FFF00000
FFF00000
FFFC0000
FFFC0000
FFFF0000
FFFF0000
3FFF0000
3FFF0000
0FFFC000
0FFFC000
0FFFC000
0FFFC000
03FFF000
03FFF000
00FFF000
00FFF000
00FFFC00
00FFFC00
003FFC00
003FFC00
003FFF00
003FFF00
000FFFC0
000FFFC0
0003FFC0
0003FFC0
0000FFC0
0000FFC0
00003FC0
00003FC0
00000FC0
00000FC0
ENDCHAR
STARTCHAR pirate
ENCODING 88
SWIDTH 506 0
DWIDTH 34 0
BBX 30 32 -14 -8
BITMAP
003FC000
003FC000
00FFF000
00FFF000
03FFFC00
03FFFC00
0F0F0F00
0F0F0F00
0F0F0F00
0F0F0F00
03FFFC00
03FFFC00
00FFF000
00FFF000
003FC000
003FC000
C03FC030
C03FC030
C03FC03C
C03FC03C
300F00C0
300F00C0
0FC03F00
0FC03F00
003FC000
003FC000
03FFFC0C
03FFFC0C
FF000FFC
FF000FFC
C0000030
C0000030
ENDCHAR
STARTCHAR pirate_mask
ENCODING 89
SWIDTH 506 0
DWIDTH 34 0
BBX 32 32 -14 -8
BITMAP
00FFF000
00FFF000
03FFFC00
03FFFC00
0FFFFF00
0FFFFF00
3FFFFFC0
3FFFFFC0
3FFFFFC0
3FFFFFC0
0FFFFF00
0FFFFF00
03FFFC00
03FFFC00
C0FFF003
C0FFF003
C0FFF03F
C0FFF03F
F0FFF0FF
F0FFF0FF
FF3FC3F0
FF3FC3F0
3FC03FC0
3FC03FC0
003FC000
003FC000
3FFFFC0F
3FFFFC0F
FFFFFFFF
FFFFFFFF
FF000FFC
FF000FFC
ENDCHAR
STARTCHAR plus
ENCODING 90
SWIDTH 506 0
DWIDTH 34 0
BBX 20 20 -8 -10
BITMAP
00F000
00F000
00F000
00F000
00F000
00F000
00F000
00F000
FFFFF0
FFFFF0
FFFFF0
FFFFF0
00F000
00F000
00F000
00F000
00F000
00F000
00F000
00F000
ENDCHAR
STARTCHAR plus_mask
ENCODING 91
SWIDTH 506 0
DWIDTH 34 0
BBX 24 24 -10 -12
BITMAP
00FF00
00FF00
00FF00
00FF00
00FF00
00FF00
00FF00
00FF00
FFFFFF
FFFFFF
FFFFFF
FFFFFF
FFFFFF
FFFFFF
FFFFFF
FFFFFF
00FF00
00FF00
00FF00
00FF00
00FF00
00FF00
00FF00
00FF00
ENDCHAR
STARTCHAR question_arrow
ENCODING 92
SWIDTH 506 0
DWIDTH 34 0
BBX 18 30 -8 -16
BITMAP
0FFC00
0FFC00
3FFF00
3FFF00
FC0FC0
FC0FC0
F003C0
F003C0
FC03C0
FC03C0
3C0FC0
3C0FC0
003F00
003F00
03FC00
03FC00
03F000
03F000
033000
033000
033000
033000
3F3F00
3F3F00
0F3C00
0F3C00
03F000
03F000
00C000
00C000
ENDCHAR
STARTCHAR question_arrow_mask
ENCODING 93
SWIDTH 506 0
DWIDTH 34 0
BBX 22 32 -10 -16
BITMAP
03FF00
03FF00
0FFFC0
0FFFC0
3FFFF0
3FFFF0
FFFFFC
FFFFFC
FF03FC
FF03FC
FFC3FC
FFC3FC
3FCFFC
3FCFFC
0FFFF0
0FFFF0
03FFC0
03FFC0
03FF00
03FF00
03FF00
03FF00
0FFFC0
0FFFC0
3FFFF0
3FFFF0
0FFFC0
0FFFC0
03FF00
03FF00
00FC00
00FC00
ENDCHAR
STARTCHAR right_ptr
ENCODING 94
SWIDTH 506 0
DWIDTH 34 0
BBX 16 28 -14 -28
BITMAP
0003
0003
000F
000F
003F
003F
00FF
00FF
03FF
03FF
0FFF
0FFF
3FFF
3FFF
FFFF
FFFF
03FF
03FF
03CF
03CF
0F03
0F03
0F00
0F00
3C00
3C00
3C00
3C00
ENDCHAR
STARTCHAR right_ptr_mask
ENCODING 95
SWIDTH 506 0
DWIDTH 34 0
BBX 20 32 -16 -30
BITMAP
0000F0
0000F0
0003F0
0003F0
000FF0
000FF0
003FF0
003FF0
00FFF0
00FFF0
03FFF0
03FFF0
0FFFF0
0FFFF0
3FFFF0
3FFFF0
FFFFF0
FFFFF0
FFFFF0
FFFFF0
03FFF0
03FFF0
0FF3F0
0FF3F0
0FF0F0
0FF0F0
3FC000
3FC000
3FC000
3FC000
0F0000
0F0000
ENDCHAR
STARTCHAR right_side
ENCODING 96
SWIDTH 506 0
DWIDTH 34 0
BBX 28 26 -26 -14
BITMAP
000000F0
000000F0
000000F0
000000F0
000C00F0
000C00F0
000300F0
000300F0
0000C0F0
0000C0F0
000030F0
000030F0
FFFFFCF0
FFFFFCF0
000030F0
000030F0
0000C0F0
0000C0F0
000300F0
000300F0
000C00F0
000C00F0
000000F0
000000F0
000000F0
000000F0
ENDCHAR
STARTCHAR right_side_mask
ENCODING 97
SWIDTH 506 0
DWIDTH 34 0
BBX 32 30 -28 -16
BITMAP
000000FF
000000FF
000000FF
000000FF
000F00FF
000F00FF
000FC0FF
000FC0FF
0003F0FF
0003F0FF
0000FCFF
0000FCFF
FFFFFFFF
FFFFFFFF
FFFFFFFF
FFFFFFFF
FFFFFFFF
FFFFFFFF
0000FCFF
0000FCFF
0003F0FF
0003F0FF
000FC0FF
000FC0FF
000F00FF
000F00FF
000000FF
000000FF
000000FF
000000FF
ENDCHAR
STARTCHAR right_tee
ENCODING 98
SWIDTH 506 0
DWIDTH 34 0
BBX 20 28 -18 -14
BITMAP
0000F0
0000F0
0000F0
0000F0
0000F0
0000F0
0000F0
0000F0
0000F0
0000F0
0000F0
0000F0
FFFFF0
FFFFF0
FFFFF0
FFFFF0
0000F0
0000F0
0000F0
0000F0
0000F0
0000F0
0000F0
0000F0
0000F0
0000F0
0000F0
0000F0
ENDCHAR
STARTCHAR right_tee_mask
ENCODING 99
SWIDTH 506 0
DWIDTH 34 0
BBX 24 32 -20 -16
BITMAP
0000FF
0000FF
0000FF
0000FF
0000FF
0000FF
0000FF
0000FF
0000FF
0000FF
0000FF
0000FF
FFFFFF
FFFFFF
FFFFFF
FFFFFF
FFFFFF
FFFFFF
FFFFFF
FFFFFF
0000FF
0000FF
0000FF
0000FF
0000FF
0000FF
0000FF
0000FF
0000FF
0000FF
0000FF
0000FF
ENDCHAR
STARTCHAR rightbutton
ENCODING 100
SWIDTH 506 0
DWIDTH 34 0
BBX 32 32 -16 -16
BITMAP
C000000F
C000000F
3FFFFFF3
3FFFFFF3
3FFFFFF3
3FFFFFF3
30303033
30303033
33333033
33333033
33333033
33333033
33333033
33333033
33333033
33333033
30303033
30303033
3FFFFFF3
3FFFFFF3
3FFFFFF3
3FFFFFF3
3FFFFFF3
3FFFFFF3
3FFFFFF3
3FFFFFF3
3FFFFFF3
3FFFFFF3
3FFFFFF3
3FFFFFF3
C000000F
C000000F
ENDCHAR
STARTCHAR rightbutton_mask
ENCODING 101
SWIDTH 506 0
DWIDTH 34 0
BBX 30 32 -16 -16
BITMAP
3FFFFFF0
3FFFFFF0
FFFFFFFC
FFFFFFFC
FFFFFFFC
FFFFFFFC
FFFFFFFC
FFFFFFFC
FFFFFFFC
FFFFFFFC
FFFFFFFC
FFFFFFFC
FFFFFFFC
FFFFFFFC
FFFFFFFC
FFFFFFFC
FFFFFFFC
FFFFFFFC
FFFFFFFC
FFFFFFFC
FFFFFFFC
FFFFFFFC
FFFFFFFC
FFFFFFFC
FFFFFFFC
FFFFFFFC
FFFFFFFC
FFFFFFFC
FFFFFFFC
FFFFFFFC
3FFFFFF0
3FFFFFF0
ENDCHAR
STARTCHAR rtl_logo
ENCODING 102
SWIDTH 506 0
DWIDTH 34 0
BBX 28 28 -12 -16
BITMAP
FFFFFFF0
FFFFFFF0
C0003030
C0003030
C0003030
C0003030
C0003030
C0003030
FFFFF030
FFFFF030
C0C03030
C0C03030
C0C03030
C0C03030
C0C03030
C0C03030
C0C03030
C0C03030
C0FFFFF0
C0FFFFF0
C0C00030
C0C00030
C0C00030
C0C00030
C0C00030
C0C00030
FFFFFFF0
FFFFFFF0
ENDCHAR
STARTCHAR rtl_logo_mask
ENCODING 103
SWIDTH 506 0
DWIDTH 34 0
BBX 32 32 -14 -18
BITMAP
FFFFFFFF
FFFFFFFF
FFFFFFFF
FFFFFFFF
FFFFFFFF
FFFFFFFF
FC003F3F
FC003F3F
FFFFFF3F
FFFFFF3F
FFFFFF3F
FFFFFF3F
FFFFFF3F
FFFFFF3F
FCFC3F3F
FCFC3F3F
FCFC3F3F
FCFC3F3F
FCFFFFFF
FCFFFFFF
FCFFFFFF
FCFFFFFF
FCFFFFFF
FCFFFFFF
FCFC003F
FCFC003F
FFFFFFFF
FFFFFFFF
FFFFFFFF
FFFFFFFF
FFFFFFFF
FFFFFFFF
ENDCHAR
STARTCHAR sailboat
ENCODING 104
SWIDTH 506 0
DWIDTH 34 0
BBX 24 26 -12 -28
BITMAP
000300
000300
000300
000300
0033C0
0033C0
0033C0
0033C0
00F3C0
00F3C0
00F3F0
00F3F0
03F3F0
03F3F0
03F3F0
03F3F0
0FF3FC
0FF3FC
0FF3FC
0FF3FC
3FF3FC
3FF3FC
3FF3FF
3FF3FF
FFC0FC
FFC0FC
ENDCHAR
STARTCHAR sailboat_mask
ENCODING 105
SWIDTH 506 0
DWIDTH 34 0
BBX 32 32 -16 -32
BITMAP
0000F000
0000F000
0000FC00
0000FC00
0003FC00
0003FC00
000FFF00
000FFF00
000FFF00
000FFF00
003FFF00
003FFF00
003FFFC0
003FFFC0
00FFFFC0
00FFFFC0
00FFFFC0
00FFFFC0
03FFFFF0
03FFFFF0
03FFFFF0
03FFFFF0
0FFFFFF0
0FFFFFF0
0FFFFFFF
0FFFFFFF
3FFFFFFF
3FFFFFFF
FFFFFFC0
FFFFFFC0
3FFFFC00
3FFFFC00
ENDCHAR
STARTCHAR sb_down_arrow
ENCODING 106
SWIDTH 506 0
DWIDTH 34 0
BBX 14 30 -6 0
BITMAP
0CC0
0CC0
0CC0
0CC0
0CC0
0CC0
0CC0
0CC0
0CC0
0CC0
0CC0
0CC0
0CC0
0CC0
0CC0
0CC0
0CC0
0CC0
0CC0
0CC0
0CC0
0CC0
FFFC
FFFC
3FF0
3FF0
0FC0
0FC0
0300
0300
ENDCHAR
STARTCHAR sb_down_arrow_mask
ENCODING 107
SWIDTH 506 0
DWIDTH 34 0
BBX 18 32 -8 -2
BITMAP
0FFC00
0FFC00
0FFC00
0FFC00
0FFC00
0FFC00
0FFC00
0FFC00
0FFC00
0FFC00
0FFC00
0FFC00
0FFC00
0FFC00
0FFC00
0FFC00
0FFC00
0FFC00
0FFC00
0FFC00
FFFFC0
FFFFC0
FFFFC0
FFFFC0
3FFF00
3FFF00
0FFC00
0FFC00
03F000
03F000
00C000
00C000
ENDCHAR
STARTCHAR sb_h_double_arrow
ENCODING 108
SWIDTH 506 0
DWIDTH 34 0
BBX 30 14 -14 -8
BITMAP
03000300
03000300
0F0003C0
0F0003C0
3FFFFFF0
3FFFFFF0
FF0003FC
FF0003FC
3FFFFFF0
3FFFFFF0
0F0003C0
0F0003C0
03000300
03000300
ENDCHAR
STARTCHAR sb_h_double_arrow_mask
ENCODING 109
SWIDTH 506 0
DWIDTH 34 0
BBX 30 18 -14 -10
BITMAP
03C00F00
03C00F00
0FC00FC0
0FC00FC0
3FFFFFF0
3FFFFFF0
FFFFFFFC
FFFFFFFC
FFFFFFFC
FFFFFFFC
FFFFFFFC
FFFFFFFC
3FFFFFF0
3FFFFFF0
0FC00FC0
0FC00FC0
03C00F00
03C00F00
ENDCHAR
STARTCHAR sb_left_arrow
ENCODING 110
SWIDTH 506 0
DWIDTH 34 0
BBX 30 14 2 -8
BITMAP
03000000
03000000
0F000000
0F000000
3FFFFFFC
3FFFFFFC
FF000000
FF000000
3FFFFFFC
3FFFFFFC
0F000000
0F000000
03000000
03000000
ENDCHAR
STARTCHAR sb_left_arrow_mask
ENCODING 111
SWIDTH 506 0
DWIDTH 34 0
BBX 32 18 0 -10
BITMAP
00F00000
00F00000
03F00000
03F00000
0FFFFFFF
0FFFFFFF
3FFFFFFF
3FFFFFFF
FFFFFFFF
FFFFFFFF
3FFFFFFF
3FFFFFFF
0FFFFFFF
0FFFFFFF
03F00000
03F00000
00F00000
00F00000
ENDCHAR
STARTCHAR sb_right_arrow
ENCODING 112
SWIDTH 506 0
DWIDTH 34 0
BBX 30 14 -30 -8
BITMAP
00000300
00000300
000003C0
000003C0
FFFFFFF0
FFFFFFF0
000003FC
000003FC
FFFFFFF0
FFFFFFF0
000003C0
000003C0
00000300
00000300
ENDCHAR
STARTCHAR sb_right_arrow_mask
ENCODING 113
SWIDTH 506 0
DWIDTH 34 0
BBX 32 18 -30 -10
BITMAP
00000F00
00000F00
00000FC0
00000FC0
FFFFFFF0
FFFFFFF0
FFFFFFFC
FFFFFFFC
FFFFFFFF
FFFFFFFF
FFFFFFFC
FFFFFFFC
FFFFFFF0
FFFFFFF0
00000FC0
00000FC0
00000F00
00000F00
ENDCHAR
STARTCHAR sb_up_arrow
ENCODING 114
SWIDTH 506 0
DWIDTH 34 0
BBX 14 30 -6 -32
BITMAP
0300
0300
0FC0
0FC0
3FF0
3FF0
FFFC
FFFC
0CC0
0CC0
0CC0
0CC0
0CC0
0CC0
0CC0
0CC0
0CC0
0CC0
0CC0
0CC0
0CC0
0CC0
0CC0
0CC0
0CC0
0CC0
0CC0
0CC0
0CC0
0CC0
ENDCHAR
STARTCHAR sb_up_arrow_mask
ENCODING 115
SWIDTH 506 0
DWIDTH 34 0
BBX 18 32 -8 -32
BITMAP
00C000
00C000
03F000
03F000
0FFC00
0FFC00
3FFF00
3FFF00
FFFFC0
FFFFC0
FFFFC0
FFFFC0
0FFC00
0FFC00
0FFC00
0FFC00
0FFC00
0FFC00
0FFC00
0FFC00
0FFC00
0FFC00
0FFC00
0FFC00
0FFC00
0FFC00
0FFC00
0FFC00
0FFC00
0FFC00
0FFC00
0FFC00
ENDCHAR
STARTCHAR sb_v_double_arrow
ENCODING 116
SWIDTH 506 0
DWIDTH 34 0
BBX 14 30 -6 -16
BITMAP
0300
0300
0FC0
0FC0
3FF0
3FF0
FFFC
FFFC
0CC0
0CC0
0CC0
0CC0
0CC0
0CC0
0CC0
0CC0
0CC0
0CC0
0CC0
0CC0
0CC0
0CC0
FFFC
FFFC
3FF0
3FF0
0FC0
0FC0
0300
0300
ENDCHAR
STARTCHAR sb_v_double_arrow_mask
ENCODING 117
SWIDTH 506 0
DWIDTH 34 0
BBX 18 30 -8 -16
BITMAP
03F000
03F000
0FFC00
0FFC00
3FFF00
3FFF00
FFFFC0
FFFFC0
FFFFC0
FFFFC0
0FFC00
0FFC00
0FFC00
0FFC00
0FFC00
0FFC00
0FFC00
0FFC00
0FFC00
0FFC00
FFFFC0
FFFFC0
FFFFC0
FFFFC0
3FFF00
3FFF00
0FFC00
0FFC00
03F000
03F000
ENDCHAR
STARTCHAR shuttle
ENCODING 118
SWIDTH 506 0
DWIDTH 34 0
BBX 30 32 -20 -32
BITMAP
00000C00
00000C00
00003F00
00003F00
0000FFC0
0000FFC0
0003F3FC
0003F3FC
0033F3FC
0033F3FC
00C3F3FC
00C3F3FC
0303F3FC
0303F3FC
0303F3FC
0303F3FC
0303F3FC
0303F3FC
0303F3FC
0303F3FC
0F03F3FC
0F03F3FC
3F03F3FC
3F03F3FC
FFF3F3FC
FFF3F3FC
03C0C0C0
03C0C0C0
00003FC0
00003FC0
00000F00
00000F00
ENDCHAR
STARTCHAR shuttle_mask
ENCODING 119
SWIDTH 506 0
DWIDTH 34 0
BBX 32 32 -22 -32
BITMAP
00000FC0
00000FC0
00003FF0
00003FF0
0000FFFC
0000FFFC
0000FFFF
0000FFFF
003CFFFF
003CFFFF
00FCFFFF
00FCFFFF
03FCFFFF
03FCFFFF
03FCFFFF
03FCFFFF
03FCFFFF
03FCFFFF
03FCFFFF
03FCFFFF
0FFCFFFF
0FFCFFFF
3FFCFFFF
3FFCFFFF
FFFCFFFF
FFFCFFFF
3FFCFFFC
3FFCFFFC
00F03FFC
00F03FFC
00000FF0
00000FF0
ENDCHAR
STARTCHAR sizing
ENCODING 120
SWIDTH 506 0
DWIDTH 34 0
BBX 28 28 -14 -14
BITMAP
FFFF0000
FFFF0000
C0000000
C0000000
C0000000
C0000000
C0000000
C0000000
C0FFF000
C0FFF000
C0C03000
C0C03000
C0C03030
C0C03030
C0C03030
C0C03030
00C03030
00C03030
00FFF030
00FFF030
00000C30
00000C30
00000330
00000330
000000F0
000000F0
000FFFF0
000FFFF0
ENDCHAR
STARTCHAR sizing_mask
ENCODING 121
SWIDTH 506 0
DWIDTH 34 0
BBX 32 32 -16 -16
BITMAP
FFFFF000
FFFFF000
FFFFF000
FFFFF000
FFFFF000
FFFFF000
FC000000
FC000000
FCFFFF00
FCFFFF00
FCFFFF00
FCFFFF00
FCFFFF3F
FCFFFF3F
FCFC3F3F
FCFC3F3F
FCFC3F3F
FCFC3F3F
FCFFFF3F
FCFFFF3F
00FFFF3F
00FFFF3F
00FFFFFF
00FFFFFF
000003FF
000003FF
000FFFFF
000FFFFF
000FFFFF
000FFFFF
000FFFFF
000FFFFF
ENDCHAR
STARTCHAR spider
ENCODING 122
SWIDTH 506 0
DWIDTH 34 0
BBX 32 32 -12 -18
BITMAP
0C000300
0C000300
03000C00
03000C00
03000C00
03000C00
00C03000
00C03000
00C03000
00C03000
C03FC03F
C03FC03F
3C3FC3C0
3C3FC3C0
03FFFC00
03FFFC00
03FFFC00
03FFFC00
3C3FC3C0
3C3FC3C0
C03FC03F
C03FC03F
00C03000
00C03000
00C03000
00C03000
03000C00
03000C00
03000C00
03000C00
0C000300
0C000300
ENDCHAR
STARTCHAR spider_mask
ENCODING 123
SWIDTH 506 0
DWIDTH 34 0
BBX 32 32 -12 -18
BITMAP
3C0003C0
3C0003C0
0F000F00
0F000F00
03000C00
03000C00
03C03C00
03C03C00
C0FFF003
C0FFF003
F0FFF0FF
F0FFF0FF
3CFFF3F0
3CFFF3F0
0FFFFF00
0FFFFF00
0FFFFC00
0FFFFC00
3CFFFFC0
3CFFFFC0
F0FFF0FF
F0FFF0FF
C0FFF003
C0FFF003
03C03000
03C03000
03C03C00
03C03C00
0F000F00
0F000F00
3C0003C0
3C0003C0
ENDCHAR
STARTCHAR spraycan
ENCODING 124
SWIDTH 506 0
DWIDTH 34 0
BBX 22 32 -18 -28
BITMAP
00003C
00003C
000300
000300
0F303C
0F303C
3FC300
3FC300
3CC03C
3CC03C
FFF000
FFF000
C03000
C03000
FC3000
FC3000
CC3000
CC3000
FC3000
FC3000
CC3000
CC3000
FC3000
FC3000
FC3000
FC3000
C03000
C03000
C03000
C03000
FFF000
FFF000
ENDCHAR
STARTCHAR spraycan_mask
ENCODING 125
SWIDTH 506 0
DWIDTH 34 0
BBX 24 32 -20 -28
BITMAP
00000F
00000F
03C0CF
03C0CF
0FFCCF
0FFCCF
0FFCCF
0FFCCF
3FFCCF
3FFCCF
FFFF00
FFFF00
FFFF00
FFFF00
FFFF00
FFFF00
FFFF00
FFFF00
FFFF00
FFFF00
FFFF00
FFFF00
FFFF00
FFFF00
FFFF00
FFFF00
FFFF00
FFFF00
FFFF00
FFFF00
FFFF00
FFFF00
ENDCHAR
STARTCHAR star
ENCODING 126
SWIDTH 506 0
DWIDTH 34 0
BBX 30 32 -14 -18
BITMAP
00030000
00030000
000CC000
000CC000
000CC000
000CC000
000CC000
000CC000
00303000
00303000
00303000
00303000
00303000
00303000
0FC30FC0
0FC30FC0
F000003C
F000003C
0FC00FC0
0FC00FC0
00C30C00
00C30C00
030CC300
030CC300
0C3030C0
0C3030C0
0CC00CC0
0CC00CC0
0F0003C0
0F0003C0
0C0000C0
0C0000C0
ENDCHAR
STARTCHAR star_mask
ENCODING 127
SWIDTH 506 0
DWIDTH 34 0
BBX 32 32 -14 -18
BITMAP
00030000
00030000
000FC000
000FC000
000FC000
000FC000
003CF000
003CF000
003CF000
003CF000
00F03C00
00F03C00
03F03FC0
03F03FC0
FFC30FFC
FFC30FFC
F000003F
F000003F
FFC00FFC
FFC00FFC
0FC30FC0
0FC30FC0
0F0FC3C0
0F0FC3C0
3C3CF0F0
3C3CF0F0
3CF03CF0
3CF03CF0
3FC00FF0
3FC00FF0
3F0003F0
3F0003F0
ENDCHAR
STARTCHAR target
ENCODING 128
SWIDTH 506 0
DWIDTH 34 0
BBX 30 26 -14 -14
BITMAP
000FC000
000FC000
00FFFC00
00FFFC00
03F03F00
03F03F00
0F0003C0
0F0003C0
3C0000F0
3C0000F0
F003003C
F003003C
F00CC03C
F00CC03C
F003003C
F003003C
3C0000F0
3C0000F0
0F0003C0
0F0003C0
03F03F00
03F03F00
00FFFC00
00FFFC00
000FC000
000FC000
ENDCHAR
STARTCHAR target_mask
ENCODING 129
SWIDTH 506 0
DWIDTH 34 0
BBX 32 28 -14 -14
BITMAP
003FF000
003FF000
00FFFC00
00FFFC00
03FFFF00
03FFFF00
0FF03FC0
0FF03FC0
3F0003F0
3F0003F0
FC0300FC
FC0300FC
F00FC03F
F00FC03F
F03CF03F
F03CF03F
F00FC03F
F00FC03F
FC0300FC
FC0300FC
3F0003F0
3F0003F0
0FF03FC0
0FF03FC0
03FFFF00
03FFFF00
003FF000
003FF000
ENDCHAR
STARTCHAR tcross
ENCODING 130
SWIDTH 476 0
DWIDTH 32 0
BBX 26 26 -12 -14
BITMAP
000C0000
000C0000
000C0000
000C0000
000C0000
000C0000
000C0000
000C0000
000C0000
000C0000
000C0000
000C0000
FFFFFFC0
FFFFFFC0
000C0000
000C0000
000C0000
000C0000
000C0000
000C0000
000C0000
000C0000
000C0000
000C0000
000C0000
000C0000
ENDCHAR
STARTCHAR tcross_mask
ENCODING 131
SWIDTH 476 0
DWIDTH 32 0
BBX 30 30 -14 -16
BITMAP
000FC000
000FC000
000FC000
000FC000
000FC000
000FC000
000FC000
000FC000
000FC000
000FC000
000FC000
000FC000
FFFFFFFC
FFFFFFFC
FFFFFFFC
FFFFFFFC
FFFFFFFC
FFFFFFFC
000FC000
000FC000
000FC000
000FC000
000FC000
000FC000
000FC000
000FC000
000FC000
000FC000
000FC000
000FC000
ENDCHAR
STARTCHAR top_left_arrow
ENCODING 132
SWIDTH 506 0
DWIDTH 34 0
BBX 28 28 0 -28
BITMAP
F0000000
F0000000
FF000000
FF000000
3FF00000
3FF00000
3FFF0000
3FFF0000
0FFFF000
0FFFF000
0FFFFF00
0FFFFF00
03FF0000
03FF0000
03FF0000
03FF0000
00F0C000
00F0C000
00F03000
00F03000
00300C00
00300C00
00300300
00300300
000000C0
000000C0
00000030
00000030
ENDCHAR
STARTCHAR top_left_arrow_mask
ENCODING 133
SWIDTH 506 0
DWIDTH 34 0
BBX 32 32 -2 -30
BITMAP
FC000000
FC000000
FFC00000
FFC00000
FFFC0000
FFFC0000
3FFFC000
3FFFC000
3FFFFC00
3FFFFC00
0FFFFFF0
0FFFFFF0
0FFFFFF0
0FFFFFF0
03FFFFF0
03FFFFF0
03FFF000
03FFF000
00FFFC00
00FFFC00
00FF3F00
00FF3F00
003F0FC0
003F0FC0
003F03F0
003F03F0
003F00FC
003F00FC
0000003F
0000003F
0000000F
0000000F
ENDCHAR
STARTCHAR top_left_corner
ENCODING 134
SWIDTH 506 0
DWIDTH 34 0
BBX 28 28 0 -28
BITMAP
FFFFFFF0
FFFFFFF0
FFFFFFF0
FFFFFFF0
F0000000
F0000000
F0000000
F0000000
F0000000
F0000000
F03FFF00
F03FFF00
F03C0000
F03C0000
F0330000
F0330000
F030C000
F030C000
F0303000
F0303000
F0300C00
F0300C00
F0300300
F0300300
F0000000
F0000000
F0000000
F0000000
ENDCHAR
STARTCHAR top_left_corner_mask
ENCODING 135
SWIDTH 506 0
DWIDTH 34 0
BBX 32 32 -2 -30
BITMAP
FFFFFFFF
FFFFFFFF
FFFFFFFF
FFFFFFFF
FFFFFFFF
FFFFFFFF
FFFFFFFF
FFFFFFFF
FF000000
FF000000
FF3FFFF0
FF3FFFF0
FF3FFFF0
FF3FFFF0
FF3FFFF0
FF3FFFF0
FF3FF000
FF3FF000
FF3FFC00
FF3FFC00
FF3F3F00
FF3F3F00
FF3F0FC0
FF3F0FC0
FF3F03F0
FF3F03F0
FF3F00F0
FF3F00F0
FF000000
FF000000
FF000000
FF000000
ENDCHAR
STARTCHAR top_right_corner
ENCODING 136
SWIDTH 506 0
DWIDTH 34 0
BBX 28 28 -26 -28
BITMAP
FFFFFFF0
FFFFFFF0
FFFFFFF0
FFFFFFF0
000000F0
000000F0
000000F0
000000F0
000000F0
000000F0
0FFFC0F0
0FFFC0F0
0003C0F0
0003C0F0
000CC0F0
000CC0F0
0030C0F0
0030C0F0
00C0C0F0
00C0C0F0
0300C0F0
0300C0F0
0C00C0F0
0C00C0F0
000000F0
000000F0
000000F0
000000F0
ENDCHAR
STARTCHAR top_right_corner_mask
ENCODING 137
SWIDTH 506 0
DWIDTH 34 0
BBX 32 32 -28 -30
BITMAP
FFFFFFFF
FFFFFFFF
FFFFFFFF
FFFFFFFF
FFFFFFFF
FFFFFFFF
FFFFFFFF
FFFFFFFF
000000FF
000000FF
0FFFFCFF
0FFFFCFF
0FFFFCFF
0FFFFCFF
0FFFFCFF
0FFFFCFF
000FFCFF
000FFCFF
003FFCFF
003FFCFF
00FCFCFF
00FCFCFF
03F0FCFF
03F0FCFF
0FC0FCFF
0FC0FCFF
0F00FCFF
0F00FCFF
000000FF
000000FF
000000FF
000000FF
ENDCHAR
STARTCHAR top_side
ENCODING 138
SWIDTH 506 0
DWIDTH 34 0
BBX 26 28 -12 -28
BITMAP
FFFFFFC0
FFFFFFC0
FFFFFFC0
FFFFFFC0
00000000
00000000
000C0000
000C0000
003F0000
003F0000
00CCC000
00CCC000
030C3000
030C3000
0C0C0C00
0C0C0C00
000C0000
000C0000
000C0000
000C0000
000C0000
000C0000
000C0000
000C0000
000C0000
000C0000
000C0000
000C0000
ENDCHAR
STARTCHAR top_side_mask
ENCODING 139
SWIDTH 506 0
DWIDTH 34 0
BBX 30 32 -14 -30
BITMAP
FFFFFFFC
FFFFFFFC
FFFFFFFC
FFFFFFFC
FFFFFFFC
FFFFFFFC
FFFFFFFC
FFFFFFFC
000FC000
000FC000
003FF000
003FF000
00FFFC00
00FFFC00
03FFFF00
03FFFF00
0FCFCFC0
0FCFCFC0
0F0FC3C0
0F0FC3C0
000FC000
000FC000
000FC000
000FC000
000FC000
000FC000
000FC000
000FC000
000FC000
000FC000
000FC000
000FC000
ENDCHAR
STARTCHAR top_tee
ENCODING 140
SWIDTH 506 0
DWIDTH 34 0
BBX 28 20 -14 -20
BITMAP
FFFFFFF0
FFFFFFF0
FFFFFFF0
FFFFFFF0
000F0000
000F0000
000F0000
000F0000
000F0000
000F0000
000F0000
000F0000
000F0000
000F0000
000F0000
000F0000
000F0000
000F0000
000F0000
000F0000
ENDCHAR
STARTCHAR top_tee_mask
ENCODING 141
SWIDTH 506 0
DWIDTH 34 0
BBX 32 24 -16 -22
BITMAP
FFFFFFFF
FFFFFFFF
FFFFFFFF
FFFFFFFF
FFFFFFFF
FFFFFFFF
FFFFFFFF
FFFFFFFF
000FF000
000FF000
000FF000
000FF000
000FF000
000FF000
000FF000
000FF000
000FF000
000FF000
000FF000
000FF000
000FF000
000FF000
000FF000
000FF000
ENDCHAR
STARTCHAR trek
ENCODING 142
SWIDTH 506 0
DWIDTH 34 0
BBX 14 32 -6 -32
BITMAP
0300
0300
0000
0000
0FC0
0FC0
3FF0
3FF0
FFFC
FFFC
FCFC
FCFC
FFFC
FFFC
3FF0
3FF0
0FC0
0FC0
0300
0300
CFCC
CFCC
F33C
F33C
C30C
C30C
C00C
C00C
C00C
C00C
C00C
C00C
ENDCHAR
STARTCHAR trek_mask
ENCODING 143
SWIDTH 506 0
DWIDTH 34 0
BBX 18 32 -8 -32
BITMAP
03F000
03F000
03F000
03F000
0FFC00
0FFC00
3FFF00
3FFF00
FFFFC0
FFFFC0
FFFFC0
FFFFC0
FFFFC0
FFFFC0
3FFF00
3FFF00
0FFC00
0FFC00
33F300
33F300
FFFFC0
FFFFC0
FFFFC0
FFFFC0
FFFFC0
FFFFC0
FCCFC0
FCCFC0
FCCFC0
FCCFC0
FC0FC0
FC0FC0
ENDCHAR
STARTCHAR ul_angle
ENCODING 144
SWIDTH 506 0
DWIDTH 34 0
BBX 20 20 0 -20
BITMAP
FFFFF0
FFFFF0
FFFFF0
FFFFF0
F00000
F00000
F00000
F00000
F00000
F00000
F00000
F00000
F00000
F00000
F00000
F00000
F00000
F00000
F00000
F00000
ENDCHAR
STARTCHAR ul_angle_mask
ENCODING 145
SWIDTH 506 0
DWIDTH 34 0
BBX 24 24 -2 -22
BITMAP
FFFFFF
FFFFFF
FFFFFF
FFFFFF
FFFFFF
FFFFFF
FFFFFF
FFFFFF
FF0000
FF0000
FF0000
FF0000
FF0000
FF0000
FF0000
FF0000
FF0000
FF0000
FF0000
FF0000
FF0000
FF0000
FF0000
FF0000
ENDCHAR
STARTCHAR umbrella
ENCODING 146
SWIDTH 506 0
DWIDTH 34 0
BBX 28 28 -14 -24
BITMAP
03030C00
03030C00
00303300
00303300
C30F30F0
C30F30F0
30FFC300
30FFC300
0F0C3C00
0F0C3C00
F00C03C0
F00C03C0
000C0000
000C0000
000C0000
000C0000
000C0000
000C0000
000C0000
000C0000
000C0000
000C0000
000CC000
000CC000
000CC000
000CC000
00030000
00030000
ENDCHAR
STARTCHAR umbrella_mask
ENCODING 147
SWIDTH 506 0
DWIDTH 34 0
BBX 32 32 -16 -28
BITMAP
033F3CFC
033F3CFC
F3FFFFCF
F3FFFFCF
CFFFFFF0
CFFFFFF0
3FFFFFFF
3FFFFFFF
FFFFFFF0
FFFFFFF0
FFFFFFFF
FFFFFFFF
FF0FC3FC
FF0FC3FC
000FC000
000FC000
000FC000
000FC000
000FC000
000FC000
000FC000
000FC000
000FFC00
000FFC00
000FFC00
000FFC00
000FFC00
000FFC00
000FFC00
000FFC00
0003F000
0003F000
ENDCHAR
STARTCHAR ur_angle
ENCODING 148
SWIDTH 506 0
DWIDTH 34 0
BBX 20 20 -18 -20
BITMAP
FFFFF0
FFFFF0
FFFFF0
FFFFF0
0000F0
0000F0
0000F0
0000F0
0000F0
0000F0
0000F0
0000F0
0000F0
0000F0
0000F0
0000F0
0000F0
0000F0
0000F0
0000F0
ENDCHAR
STARTCHAR ur_angle_mask
ENCODING 149
SWIDTH 506 0
DWIDTH 34 0
BBX 24 24 -20 -22
BITMAP
FFFFFF
FFFFFF
FFFFFF
FFFFFF
FFFFFF
FFFFFF
FFFFFF
FFFFFF
0000FF
0000FF
0000FF
0000FF
0000FF
0000FF
0000FF
0000FF
0000FF
0000FF
0000FF
0000FF
0000FF
0000FF
0000FF
0000FF
ENDCHAR
STARTCHAR watch
ENCODING 150
SWIDTH 506 0
DWIDTH 34 0
BBX 32 32 -30 -14
BITMAP
03FFFC00
03FFFC00
03FFFC00
03FFFC00
03FFFC00
03FFFC00
0FFFFF00
0FFFFF00
3C0303C0
3C0303C0
F00300F0
F00300F0
C003003F
C003003F
C00FC03F
C00FC03F
C00FC03F
C00FC03F
C030003F
C030003F
F0C000F0
F0C000F0
3C0003C0
3C0003C0
0FFFFF00
0FFFFF00
03FFFC00
03FFFC00
03FFFC00
03FFFC00
03FFFC00
03FFFC00
ENDCHAR
STARTCHAR watch_mask
ENCODING 151
SWIDTH 506 0
DWIDTH 34 0
BBX 32 32 -30 -14
BITMAP
0FFFFF00
0FFFFF00
0FFFFF00
0FFFFF00
0FFFFF00
0FFFFF00
3FFFFFC0
3FFFFFC0
FFFFFFF0
FFFFFFF0
FFFFFFFF
FFFFFFFF
FFFFFFFF
FFFFFFFF
FFFFFFFF
FFFFFFFF
FFFFFFFF
FFFFFFFF
FFFFFFFF
FFFFFFFF
FFFFFFFF
FFFFFFFF
FFFFFFF0
FFFFFFF0
3FFFFFC0
3FFFFFC0
0FFFFF00
0FFFFF00
0FFFFF00
0FFFFF00
0FFFFF00
0FFFFF00
ENDCHAR
STARTCHAR xterm
ENCODING 152
SWIDTH 297 0
DWIDTH 20 0
BBX 14 28 -6 -14
BITMAP
FCFC
FCFC
0FC0
0FC0
0300
0300
0300
0300
0300
0300
0300
0300
0300
0300
0300
0300
0300
0300
0300
0300
0300
0300
0300
0300
0FC0
0FC0
FCFC
FCFC
ENDCHAR
STARTCHAR xterm_mask
ENCODING 153
SWIDTH 297 0
DWIDTH 20 0
BBX 18 32 -8 -16
BITMAP
FF3FC0
FF3FC0
FFFFC0
FFFFC0
FFFFC0
FFFFC0
0FFC00
0FFC00
03F000
03F000
03F000
03F000
03F000
03F000
03F000
03F000
03F000
03F000
03F000
03F000
03F000
03F000
03F000
03F000
0FFC00
0FFC00
FFFFC0
FFFFC0
FFFFC0
FFFFC0
FF3FC0
FF3FC0
ENDCHAR
ENDFONT
